<svg xmlns="http://www.w3.org/2000/svg" viewBox="0 0 295.88 259.67"><defs><style>.cls-1{fill:#fff;}.cls-2{fill:#ff0010;}.cls-3{fill:#ffd020;}.cls-4{fill:none;stroke:#000;stroke-linecap:round;stroke-linejoin:round;stroke-width:2.68px;}</style></defs><title>one-piece-flag</title><g id="Layer_5"><path d="M230.11,274.83a21.77,21.77,0,0,1-11.94-3.53A20.8,20.8,0,0,1,208.91,254a20.41,20.41,0,0,1,3.13-11.1l-9.29-8.59c-.33,1.61-.71,3.19-1.13,4.76-3.23,11.92-9.68,21.41-18.17,26.71a50,50,0,0,1-9,4.29,67.21,67.21,0,0,1-23.48,4.21,62.11,62.11,0,0,1-27.31-6.06c-11.7-5.77-19.79-15.11-23.4-27a56.59,56.59,0,0,1-1.65-7.05l-7.92,7.32a20.43,20.43,0,0,1,3.13,11.1,20.84,20.84,0,0,1-9.26,17.29,21.78,21.78,0,0,1-12,3.54,21.55,21.55,0,0,1-7.24-1.23,22,22,0,0,1-14.45-17.28c-7.07-.93-13.56-5.51-16.36-11.77a20.58,20.58,0,0,1,8-25.58,19.88,19.88,0,0,1,10.36-2.84,21,21,0,0,1,11.05,3.11L104.37,183a82.51,82.51,0,0,1-9-6.79,77.35,77.35,0,0,1-25.73-45.42H42a11.08,11.08,0,0,1,0-22.16H67.45l-26.1-24.8A20.52,20.52,0,0,1,29.24,88h-.12A20.89,20.89,0,0,1,12,78.76,22,22,0,0,1,9.64,59.57,22.48,22.48,0,0,1,19.57,47.7a22.24,22.24,0,0,1,7.35-2.59c.93-7,5.42-13.51,11.77-16.35a19.5,19.5,0,0,1,8-1.68,20.61,20.61,0,0,1,17.59,9.64,20.84,20.84,0,0,1,.06,20.86l18.2,17c15.27-21.71,41.14-35,69-35,27.12,0,52.64,12.74,68,33.61l18.8-17.59a20.87,20.87,0,0,1,0-20.86A20.63,20.63,0,0,1,256,25.17a19.46,19.46,0,0,1,8,1.67A21.07,21.07,0,0,1,275.74,43.2a22.19,22.19,0,0,1,7.36,2.58A22.48,22.48,0,0,1,293,57.65a22,22,0,0,1-2.31,19.19,20.89,20.89,0,0,1-17.18,9.26h-.1a20.59,20.59,0,0,1-12.12-4.18L233.7,108.15l.06.48H262a11.08,11.08,0,1,1,0,22.16H233.34a77.39,77.39,0,0,1-25.72,45.42,81.71,81.71,0,0,1-10.1,7.52l41.27,35.51a21.08,21.08,0,0,1,11.06-3.11A19.91,19.91,0,0,1,260.21,219a20.58,20.58,0,0,1,8,25.58c-2.8,6.26-9.3,10.84-16.36,11.78a22.1,22.1,0,0,1-14.45,17.27A21.61,21.61,0,0,1,230.11,274.83Z" class="cls-1" transform="translate(-3.39 -20.17)"/><path d="M256,30.17a14.4,14.4,0,0,1,6,1.24c6.07,2.71,9.8,10,8.84,16.54.43,0,.87-.05,1.3-.05a17.11,17.11,0,0,1,16.24,11.42,16.93,16.93,0,0,1-1.75,14.75,15.79,15.79,0,0,1-13,7h-.07A15.53,15.53,0,0,1,261.38,75l-33,31.36a67.85,67.85,0,0,1,.87,7.31H262a6.08,6.08,0,1,1,0,12.16H229a72.06,72.06,0,0,1-24.66,46.66,78.1,78.1,0,0,1-13.81,9.61c.68,1.28,1.32,2.59,1.93,3.91l46.2,39.74a15.74,15.74,0,0,1,11.2-4.58,14.86,14.86,0,0,1,7.75,2.11,15.71,15.71,0,0,1,6,19.27c-2.42,5.43-8.47,9-14.44,9a14.83,14.83,0,0,1-2.1-.15,17.13,17.13,0,0,1-11.37,17.54,16.85,16.85,0,0,1-5.58.94,16.63,16.63,0,0,1-9.17-2.7,15.75,15.75,0,0,1-7-13.08c0-5,1.85-9,5.15-11.46l-19.92-18.42a75,75,0,0,1-2.35,13.6c-2.89,10.71-8.57,19.15-16,23.78a45.45,45.45,0,0,1-8.17,3.85,61.79,61.79,0,0,1-21.71,3.89h0a57.22,57.22,0,0,1-25.1-5.55c-10.43-5.14-17.63-13.42-20.83-24a58.07,58.07,0,0,1-2.35-16.19l-19,17.6c3.3,2.51,5.11,6.51,5.15,11.45a15.77,15.77,0,0,1-7,13.09A17,17,0,0,1,67,267.48a17.16,17.16,0,0,1-11.38-17.54,14.59,14.59,0,0,1-2.09.15c-6,0-12-3.56-14.44-9a15.69,15.69,0,0,1,6-19.27,14.9,14.9,0,0,1,7.76-2.11A15.78,15.78,0,0,1,64,224.29l46.39-39.9.07,0c.32-1,.64-1.92,1-2.88a77.77,77.77,0,0,1-12.73-9,72,72,0,0,1-24.66-46.66H42a6.08,6.08,0,0,1,0-12.16H73.8c.12-1.8.3-3.58.55-5.34L41.28,76.88A15.52,15.52,0,0,1,29.2,83h-.08a15.82,15.82,0,0,1-13-7,16.93,16.93,0,0,1-1.76-14.75A17.14,17.14,0,0,1,30.58,49.81c.44,0,.88,0,1.31,0-1-6.58,2.77-13.83,8.84-16.54a14.63,14.63,0,0,1,6-1.24A15.73,15.73,0,0,1,60,39.32a15.75,15.75,0,0,1-2.36,18.85L83.48,82.35c13.33-22.58,38.82-37.71,68-37.71,28.58,0,53.62,14.48,67.17,36.26L245,56.26a15.8,15.8,0,0,1-2.36-18.86A15.71,15.71,0,0,1,256,30.17m0-10h0a25.61,25.61,0,0,0-21.85,12,25.49,25.49,0,0,0-1.89,22.32L220.09,65.89a86.84,86.84,0,0,0-24.53-20,91.54,91.54,0,0,0-44-11.2c-27.47,0-53.15,12.22-69.63,32.53L70.42,56.44a25.49,25.49,0,0,0-1.88-22.32,25.64,25.64,0,0,0-21.86-12,24.45,24.45,0,0,0-10,2.11,25.67,25.67,0,0,0-14,16.8,26.49,26.49,0,0,0-5.53,2.37A27.51,27.51,0,0,0,4.93,57.9,26.75,26.75,0,0,0,7.78,81.53,26,26,0,0,0,29.12,93h.12a25.26,25.26,0,0,0,11.46-2.9l14.23,13.51H42a16.08,16.08,0,0,0,0,32.16H65.57A82.72,82.72,0,0,0,92.13,180q2,1.76,4.14,3.39l-33.1,28.47a26.31,26.31,0,0,0-10.34-2.12,24.86,24.86,0,0,0-13,3.57,25.12,25.12,0,0,0,6.87,45.9,26.88,26.88,0,0,0,2.37,5.54A27.51,27.51,0,0,0,63.65,276.9a26.57,26.57,0,0,0,8.91,1.52,26.84,26.84,0,0,0,14.72-4.37,25.88,25.88,0,0,0,11.49-21.49c0-.58,0-1.15-.06-1.72a49.39,49.39,0,0,0,22.69,21.87,67.08,67.08,0,0,0,29.52,6.58,72.07,72.07,0,0,0,25.25-4.54A55.17,55.17,0,0,0,186.1,270c8.76-5.47,15.56-14.76,19.37-26.39l.37.34a26.58,26.58,0,0,0-1.93,10,25.87,25.87,0,0,0,11.49,21.49A27,27,0,0,0,239,278.32a27,27,0,0,0,16.92-17.72,25.13,25.13,0,0,0,6.87-45.9,25,25,0,0,0-13-3.57,26.32,26.32,0,0,0-10.35,2.12l-33.8-29.07c1.79-1.34,3.53-2.74,5.2-4.2a82.6,82.6,0,0,0,26.56-44.19H262a16.08,16.08,0,1,0,0-32.16H245.71L262,88.2a25.23,25.23,0,0,0,11.43,2.9h.15a25.59,25.59,0,0,0,21.34-11.49A26.72,26.72,0,0,0,297.74,56a27.55,27.55,0,0,0-12.17-14.54A26.57,26.57,0,0,0,280,39.07a25.6,25.6,0,0,0-14-16.79,24.42,24.42,0,0,0-10-2.11Z" class="cls-1" transform="translate(-3.39 -20.17)"/><path d="M75.53,107.55,41,74.79l-2.33,3-6.48,4-7.64-.91-5-2.31-2.15-3-2.4-5.52.53-8.41L19,56.12,27.72,51l5.19.3.68-8.9,4.57-5.88,6.12-2.91,9.29,1.51,4.25,3.42,2.56,5.18.21,4.56-1.07,6-3.37,3.87,2,2.26L83.5,84.19l70.69-9.3,53.5,9,10.82-1.38,28.18-25.94-4.36-7.86-.26-5.7L244.53,37l5.67-4.34,10.42-1.19,5.55,4.83,3.15,6.72-.07,5.75,5.49.63,6.54,2.69s3,2.72,3.08,2.88,2.28,3.71,2.28,3.71l.54,6.12-1.79,7.45-3.76,4.88L274,79.75l-8.61-2.52-4.08-4.51-35.23,34L228,122.85l-.2,4.22-4,15.21L218,152.07l-6.06,10.64-13.89,12.06-8.69,6,.52,2.9,3.47,4.83,11.41,9.26,4.54,4.46,7.06,7,1.68.52,2.61,2.91s17.91,15.18,18.12,14.92,6.09-4.23,6.09-4.23l8.42-.46,4.11.8,2.28,3,3.15,5.54,1,4.38s-2.15,6.7-2.22,6.82-5.14,4.83-5.14,4.83l-8,2.32-3-.68s-.9,8.79-1,9-5.32,6.05-5.32,6.05-7.58,3.49-7.79,3.51-5.87-.62-5.87-.62L221.68,266l-3.62-3.48-1.42-3.25-1.29-6.81,2.51-6.52,3.51-3.5-22.83-20.66-2,12.85s-5.89,14.58-6,14.77-4.81,5.57-4.81,5.57l-6.43,5.92-17.71,5.68-15.11.79-13.71-2.26-8.9-3.94-9.53-7.58-6.82-9.43L105,229.55l-.45-9.56-23.1,21.36,3.4,2.92,2.57,7.78L86,259.92l-5,4.68-9.38,2.45-4.19-.84s-6-3.87-6.2-4-3.49-5.8-3.49-5.8l-.82-5.89-.27-2.58-5.22.7-5.66-2-4.65-4.48L40,234.5s-.23-5.92.28-5.95,4.73-5.23,5.09-5.37S51.86,221,51.86,221l7.52,1.08,4.36,3.29,2.87-1.57,31.72-27.72,13.47-11.53,1.43-3.65-12.68-8.67L87.2,157.53,83,150.6s-4.58-10.73-4.67-11-2.71-11.72-2.71-11.72l-.39-4.31L74,115l1.57-3.43Z" class="cls-1" transform="translate(-3.39 -20.17)"/><circle cx="118.8" cy="133.23" r="20.77"/><circle cx="178.48" cy="133.23" r="20.77"/><ellipse cx="148.64" cy="157.4" rx="7.8" ry="5.81"/><polygon points="78.16 68.75 218.09 68.31 222.69 81.69 224.59 94.27 222.06 95.21 71.65 94.2 71.65 91.46 74.66 75.81 78.16 68.75" class="cls-2"/><path d="M81.06,89.9c.17-.35,8.54-14.14,8.54-14.14l13.74-13.68,17.12-9.91s19.56-5.39,19.83-5.43S156.36,46,156.36,46l8.82,1.15,15.18,4.74c.44.09,10.3,4.27,10.3,4.27l11.65,8.05,10.45,10.71,6.67,10,1.5,4Z" class="cls-3" transform="translate(-3.39 -20.17)"/><polygon points="36.45 94.8 86.15 94.8 196.24 94.8 241.88 94.8 260.57 95.21 263.38 97.81 262.95 101.5 260.7 103.8 257.57 103.86 37.02 104.28 33.9 101.02 33.9 97.71 36.45 94.8" class="cls-3"/><rect width="229.48" height="9.48" x="33.9" y="94.8" class="cls-4" rx="4.74"/><path d="M227.79,124.45c-3.3,37.06-36.19,66.17-76.27,66.17s-73-29.11-76.28-66.17" class="cls-4" transform="translate(-3.39 -20.17)"/><path d="M75.05,115c1.84-38.4,35.37-69,76.47-69S226.14,76.56,228,115" class="cls-4" transform="translate(-3.39 -20.17)"/><path d="M102.1,81.36a37.62,37.62,0,0,1,11.63-15" class="cls-4" transform="translate(-3.39 -20.17)"/><path d="M114.75,84.49a30.7,30.7,0,0,1,7.17-13.11" class="cls-4" transform="translate(-3.39 -20.17)"/><path d="M128.29,82.45a15.09,15.09,0,0,1,3.81-6.27" class="cls-4" transform="translate(-3.39 -20.17)"/><path d="M181.41,74.89a18,18,0,0,1,4.07,9" class="cls-4" transform="translate(-3.39 -20.17)"/><path d="M193.52,68.68a32.22,32.22,0,0,1,8.79,16.21" class="cls-4" transform="translate(-3.39 -20.17)"/><line x1="78.16" x2="218.09" y1="68.75" y2="68.75" class="cls-4"/><path d="M113.07,180.77c-3.14,9.5-6.29,19-7.94,28.9s-1.76,20.13,1.14,29.7c8.23,27.15,42.1,33.77,65.89,24.77a44.53,44.53,0,0,0,7.94-3.73c8.08-5.05,13-14,15.4-23a75.83,75.83,0,0,0-6.71-55.79" class="cls-4" transform="translate(-3.39 -20.17)"/><line x1="127.41" x2="121.31" y1="167.77" y2="207.21" class="cls-4"/><path d="M104.55,217.31c10.46,10,27.19,15.86,41.66,16.53,26.44,1.24,43.83-8.22,51.84-15.23" class="cls-4" transform="translate(-3.39 -20.17)"/><line x1="166.24" x2="172.29" y1="168.42" y2="209.04" class="cls-4"/><line x1="148.12" x2="148.12" y1="170.45" y2="212.38" class="cls-4"/><path d="M107.1,202a90.64,90.64,0,0,0,44.67,12.67c15.66.25,31.06-4.25,44.76-11.83" class="cls-4" transform="translate(-3.39 -20.17)"/><path d="M75.77,107.78,41,74.79a14.06,14.06,0,0,1-11.85,6.88,14.55,14.55,0,0,1-12-6.43,15.55,15.55,0,0,1-1.61-13.56,15.8,15.8,0,0,1,18-10.24c-1.94-6.42,1.54-14.17,7.67-16.9A14.4,14.4,0,0,1,58.86,40a14.42,14.42,0,0,1-3.2,18.14L83.82,84.49" class="cls-4" transform="translate(-3.39 -20.17)"/><path d="M226.9,105.86l34.73-33a14.06,14.06,0,0,0,11.85,6.89,14.55,14.55,0,0,0,12-6.44,15.48,15.48,0,0,0,1.61-13.56,15.8,15.8,0,0,0-18-10.24c1.93-6.42-1.55-14.17-7.67-16.9a14.43,14.43,0,0,0-17.58,5.47A14.43,14.43,0,0,0,247,56.23L218.84,82.58" class="cls-4" transform="translate(-3.39 -20.17)"/><path d="M198.05,221.33l23.17,21.43c-4.12,2.3-5.94,6.57-6,11.29a14.55,14.55,0,0,0,6.44,12,15.48,15.48,0,0,0,13.56,1.61,15.83,15.83,0,0,0,10.24-18c6.42,1.93,14.17-1.55,16.9-7.67a13.94,13.94,0,0,0-23.61-14.39l-47.39-40.76" class="cls-4" transform="translate(-3.39 -20.17)"/><path d="M104.62,219.92,81.45,241.35c4.13,2.29,6,6.56,6,11.28a14.55,14.55,0,0,1-6.43,12,15.57,15.57,0,0,1-13.57,1.61,15.81,15.81,0,0,1-10.23-18c-6.42,1.94-14.17-1.54-16.9-7.66A14.41,14.41,0,0,1,45.77,223a14.4,14.4,0,0,1,18.13,3.2l47.39-40.76" class="cls-4" transform="translate(-3.39 -20.17)"/></g></svg>